<?xml version="1.0" standalone="no"?>
<!DOCTYPE svg PUBLIC "-//W3C//DTD SVG 20010904//EN"
 "http://www.w3.org/TR/2001/REC-SVG-20010904/DTD/svg10.dtd">
<svg version="1.0" xmlns="http://www.w3.org/2000/svg"
 width="512.000000pt" height="512.000000pt" viewBox="0 0 512.000000 512.000000"
 preserveAspectRatio="xMidYMid meet">
<metadata>
Created by potrace 1.14, written by Peter Selinger 2001-2017
</metadata>
<g transform="translate(0.000000,512.000000) scale(0.100000,-0.100000)"
fill="#000000" stroke="none">
<path d="M2378 5116 c-1 -2 -39 -6 -82 -10 -44 -4 -82 -9 -85 -11 -4 -2 -34
-7 -66 -10 -83 -10 -343 -77 -446 -115 -139 -52 -179 -69 -300 -131 -335 -170
-609 -396 -855 -703 -138 -172 -307 -475 -388 -697 -34 -94 -99 -328 -110
-399 -3 -19 -13 -82 -23 -140 -17 -113 -24 -452 -11 -590 38 -402 188 -821
413 -1160 108 -163 192 -266 324 -398 389 -391 889 -643 1446 -728 128 -19
512 -28 620 -14 39 5 90 12 115 15 140 18 390 83 539 140 847 323 1460 1068
1616 1963 24 141 30 225 30 432 0 273 -16 405 -75 635 -129 500 -432 989 -805
1300 -33 28 -62 52 -65 55 -15 17 -136 104 -210 152 -259 166 -484 265 -770
338 -101 26 -162 37 -350 65 -45 7 -455 16 -462 11z"/>
</g>
</svg>
